<svg version="1.1" id="Layer_1" xmlns="http://www.w3.org/2000/svg" xmlns:xlink="http://www.w3.org/1999/xlink" x="0px" y="0px"
	 width="100%" viewBox="0 0 512 512" enable-background="new 0 0 512 512" xml:space="preserve">
<path fill="#47704C" opacity="1.000000" stroke="none" 
	d="
M292.000000,513.000000 
	C194.690292,513.000000 97.880577,513.000000 1.035435,513.000000 
	C1.035435,342.398590 1.035435,171.797195 1.035435,1.097890 
	C171.559723,1.097890 342.119537,1.097890 512.839661,1.097890 
	C512.839661,171.666550 512.839661,342.333252 512.839661,513.000000 
	C439.463837,513.000000 365.981903,513.000000 292.000000,513.000000 
M415.688232,425.333466 
	C415.792023,423.845551 415.986450,422.357666 415.986664,420.869751 
	C416.001099,327.012482 416.004211,233.155197 415.965393,139.297943 
	C415.964661,137.536194 415.450073,135.774628 415.064362,133.205475 
	C415.425262,124.784782 405.446716,116.099113 397.843750,116.877014 
	C392.243073,117.450050 386.536682,116.989403 380.877380,116.989388 
	C373.772461,116.989357 366.667542,116.989365 359.410889,116.989365 
	C359.235718,115.195084 359.063599,114.069351 359.025177,112.939087 
	C358.672943,102.574982 352.046234,96.032402 341.818054,95.990929 
	C337.989746,95.975403 334.074249,96.484253 330.358093,95.837326 
	C326.803894,95.218582 323.111511,93.945961 320.095398,92.004501 
	C314.854340,88.630844 314.657715,82.904373 315.057251,77.367386 
	C315.446564,71.972214 313.785400,67.506104 309.622864,64.156219 
	C299.864685,56.303154 288.845215,58.436157 277.758514,60.839741 
	C262.636719,60.932014 247.514954,61.025959 232.393097,61.109203 
	C231.898468,61.111923 231.319031,61.154148 230.920853,60.928181 
	C224.234116,57.133427 216.982315,59.536446 210.006439,59.141388 
	C208.093918,59.033081 205.873398,60.242474 204.166275,61.397221 
	C198.918945,64.946632 197.453491,70.494385 198.090393,76.272087 
	C199.387131,88.035385 189.498444,96.336723 179.110626,95.041435 
	C176.163452,94.673950 173.131439,94.981560 170.138351,94.988876 
	C159.753708,95.014267 154.137787,100.527870 153.994507,110.853767 
	C153.966827,112.848679 154.001083,114.844444 153.073502,116.941246 
	C145.613968,116.957458 138.152527,116.886002 130.696106,117.046486 
	C128.619873,117.091171 126.467865,117.571785 124.505737,118.281319 
	C115.710114,121.461975 113.779510,129.056183 112.129784,137.008987 
	C100.374092,140.663773 97.996796,143.849319 97.996765,155.953842 
	C97.996529,249.436630 97.996597,342.919403 97.997017,436.402191 
	C97.997017,437.901917 97.924782,439.406525 98.018799,440.900513 
	C98.565178,449.583038 104.211044,455.000092 112.719498,455.000549 
	C200.703293,455.005432 288.687103,455.005219 376.670898,455.000916 
	C385.111328,455.000488 389.295197,451.523407 391.939880,443.048004 
	C393.585205,443.035645 395.230469,443.020233 396.875824,443.011475 
	C407.323029,442.955994 414.453247,436.323242 415.688232,425.333466 
M163.500000,456.000000 
	C146.237015,456.000000 128.974014,456.000000 111.711021,456.000000 
	C111.714096,456.220367 111.717171,456.440704 111.720245,456.661072 
	C200.573959,456.661072 289.427673,456.661072 378.281403,456.661072 
	C378.281250,456.440704 378.281097,456.220367 378.280975,456.000000 
	C307.020630,456.000000 235.760315,456.000000 163.500000,456.000000 
z"/>
<path fill="#E9262A" opacity="1.000000" stroke="none" 
	d="
M391.033356,443.126587 
	C389.295197,451.523407 385.111328,455.000488 376.670898,455.000916 
	C288.687103,455.005219 200.703293,455.005432 112.719498,455.000549 
	C104.211044,455.000092 98.565178,449.583038 98.018799,440.900513 
	C97.924782,439.406525 97.997017,437.901917 97.997017,436.402191 
	C97.996597,342.919403 97.996529,249.436630 97.996765,155.953842 
	C97.996796,143.849319 100.374092,140.663773 112.627182,137.426788 
	C113.371445,139.937088 113.833427,142.029541 113.834236,144.122147 
	C113.870049,236.611588 113.864777,329.101044 113.865623,421.590485 
	C113.865761,436.577118 120.111938,442.830719 135.090607,442.831055 
	C218.081131,442.832916 301.071655,442.829529 384.062195,442.844299 
	C386.385925,442.844727 388.709625,443.028381 391.033356,443.126587 
z"/>
<path fill="#050102" opacity="1.000000" stroke="none" 
	d="
M391.486633,443.087280 
	C388.709625,443.028381 386.385925,442.844727 384.062195,442.844299 
	C301.071655,442.829529 218.081131,442.832916 135.090607,442.831055 
	C120.111938,442.830719 113.865761,436.577118 113.865623,421.590485 
	C113.864777,329.101044 113.870049,236.611588 113.834236,144.122147 
	C113.833427,142.029541 113.371445,139.937088 112.900871,137.484894 
	C113.779510,129.056183 115.710114,121.461975 124.505737,118.281319 
	C126.467865,117.571785 128.619873,117.091171 130.696106,117.046486 
	C138.152527,116.886002 145.613968,116.957458 154.003143,116.976486 
	C159.839478,117.011719 164.746155,117.011719 169.567245,117.011719 
	C170.535782,101.332291 176.253311,96.014099 191.347122,96.005066 
	C194.675980,96.003075 198.012711,96.124329 201.332062,95.940384 
	C208.258179,95.556534 213.126953,90.822319 213.764801,83.942505 
	C213.933197,82.126122 213.793304,80.282021 213.813202,78.450844 
	C213.937027,67.051636 220.950226,59.368362 232.241089,59.126644 
	C246.719162,58.816696 261.208801,59.022701 275.692993,59.095463 
	C276.424591,59.099136 277.151917,59.945526 277.881226,60.399544 
	C288.845215,58.436157 299.864685,56.303154 309.622864,64.156219 
	C313.785400,67.506104 315.446564,71.972214 315.057251,77.367386 
	C314.657715,82.904373 314.854340,88.630844 320.095398,92.004501 
	C323.111511,93.945961 326.803894,95.218582 330.358093,95.837326 
	C334.074249,96.484253 337.989746,95.975403 341.818054,95.990929 
	C352.046234,96.032402 358.672943,102.574982 359.025177,112.939087 
	C359.063599,114.069351 359.235718,115.195084 359.410889,116.989365 
	C366.667542,116.989365 373.772461,116.989357 380.877380,116.989388 
	C386.536682,116.989403 392.243073,117.450050 397.843750,116.877014 
	C405.446716,116.099113 415.425262,124.784782 415.063843,134.075470 
	C415.049774,231.129715 415.035889,327.313995 415.029083,423.498260 
	C415.029022,424.327850 415.124451,425.157471 415.175293,425.987061 
	C414.453247,436.323242 407.323029,442.955994 396.875824,443.011475 
	C395.230469,443.020233 393.585205,443.035645 391.486633,443.087280 
M339.677673,175.111801 
	C346.581451,176.370468 353.450104,172.405304 353.939911,165.624969 
	C354.603821,156.434952 353.991943,147.152786 353.968719,136.984924 
	C353.974640,129.002151 354.241516,121.005898 353.830322,113.044670 
	C353.704041,110.599968 352.066559,107.996918 350.524109,105.906960 
	C346.235718,100.096382 340.015015,100.543037 333.058929,101.018799 
	C326.152130,100.674538 319.521362,99.479156 313.681335,94.222374 
	C309.568481,89.012566 309.982788,82.860703 309.961578,76.763275 
	C309.941895,71.094002 306.329590,66.167404 300.998230,65.266571 
	C297.442749,64.665794 293.717987,65.066559 289.452698,64.427650 
	C269.663849,64.334328 249.873077,64.058205 230.087341,64.263969 
	C224.470734,64.322372 220.393219,67.857918 218.923737,73.413162 
	C218.174454,76.245804 218.273941,79.335785 218.219772,82.313637 
	C218.018951,93.349869 211.151718,100.274872 200.045059,100.465775 
	C195.554398,100.542969 191.046814,100.301384 186.574112,100.605064 
	C179.055634,101.115532 174.290222,106.080376 174.231873,113.604927 
	C174.105545,129.890518 174.010788,146.181839 174.368118,162.460602 
	C174.432297,165.384583 176.726242,168.259613 178.349655,171.753357 
	C181.708176,172.831146 185.052856,174.788132 188.427505,174.841232 
	C207.534851,175.142044 226.649368,175.004730 245.761429,174.982803 
	C276.837189,174.947174 307.912933,174.885468 339.677673,175.111801 
M153.074005,122.059738 
	C146.969223,122.043800 140.864441,122.016289 134.759659,122.014381 
	C122.930908,122.010689 118.890320,126.104256 118.475777,138.522919 
	C118.407555,140.183929 118.279793,141.844940 118.279625,143.505951 
	C118.270073,236.469681 118.268799,329.433411 118.274338,422.397156 
	C118.275002,433.580811 122.857727,438.163849 134.031174,438.164520 
	C217.998428,438.169525 301.965668,438.170593 385.932922,438.146698 
	C387.913574,438.146149 389.894196,437.839478 392.748505,437.885986 
	C404.286346,438.243103 409.976501,433.825653 409.977997,424.358490 
	C409.993286,328.082397 409.992310,231.806274 409.977997,135.530167 
	C409.976807,127.497597 404.616333,122.058197 396.697418,122.024757 
	C385.704163,121.978333 374.710510,121.999588 363.717133,122.030151 
	C362.279114,122.034149 360.841797,122.264854 358.435608,122.475243 
	C359.075745,127.662331 359.665039,132.437500 359.768829,137.895218 
	C359.531128,139.475571 359.106934,141.053726 359.088226,142.636658 
	C359.009979,149.256821 359.138580,155.879822 359.032166,162.499207 
	C358.874176,172.325912 352.137268,179.383011 342.438995,180.142654 
	C341.222870,180.237915 340.036102,180.708313 337.919861,181.008224 
	C326.778076,181.008820 315.636261,181.009872 304.494476,181.009903 
	C266.412842,181.009949 228.331055,181.067337 190.249710,180.961899 
	C182.425735,180.940231 174.998672,179.567444 171.270020,170.211792 
	C170.783386,165.638718 169.958359,161.071686 169.876831,156.491394 
	C169.674057,145.099258 169.810120,133.701080 169.810120,122.160828 
	C164.168869,122.160828 159.088104,122.160828 153.074005,122.059738 
z"/>
<path fill="#29A5DC" opacity="1.000000" stroke="none" 
	d="
M277.819885,60.619640 
	C277.151917,59.945526 276.424591,59.099136 275.692993,59.095463 
	C261.208801,59.022701 246.719162,58.816696 232.241089,59.126644 
	C220.950226,59.368362 213.937027,67.051636 213.813202,78.450844 
	C213.793304,80.282021 213.933197,82.126122 213.764801,83.942505 
	C213.126953,90.822319 208.258179,95.556534 201.332062,95.940384 
	C198.012711,96.124329 194.675980,96.003075 191.347122,96.005066 
	C176.253311,96.014099 170.535782,101.332291 169.567245,117.011719 
	C164.746155,117.011719 159.839478,117.011719 154.469788,116.925766 
	C154.001083,114.844444 153.966827,112.848679 153.994507,110.853767 
	C154.137787,100.527870 159.753708,95.014267 170.138351,94.988876 
	C173.131439,94.981560 176.163452,94.673950 179.110626,95.041435 
	C189.498444,96.336723 199.387131,88.035385 198.090393,76.272087 
	C197.453491,70.494385 198.918945,64.946632 204.166275,61.397221 
	C205.873398,60.242474 208.093918,59.033081 210.006439,59.141388 
	C216.982315,59.536446 224.234116,57.133427 230.920853,60.928181 
	C231.319031,61.154148 231.898468,61.111923 232.393097,61.109203 
	C247.514954,61.025959 262.636719,60.932014 277.819885,60.619640 
z"/>
<path fill="#9D1D22" opacity="1.000000" stroke="none" 
	d="
M415.431763,425.660278 
	C415.124451,425.157471 415.029022,424.327850 415.029083,423.498260 
	C415.035889,327.313995 415.049774,231.129715 415.119263,134.479218 
	C415.450073,135.774628 415.964661,137.536194 415.965393,139.297943 
	C416.004211,233.155197 416.001099,327.012482 415.986664,420.869751 
	C415.986450,422.357666 415.792023,423.845551 415.431763,425.660278 
z"/>
<path fill="#9D1D22" opacity="1.000000" stroke="none" 
	d="
M164.000000,456.000000 
	C235.760315,456.000000 307.020630,456.000000 378.280975,456.000000 
	C378.281097,456.220367 378.281250,456.440704 378.281403,456.661072 
	C289.427673,456.661072 200.573959,456.661072 111.720245,456.661072 
	C111.717171,456.440704 111.714096,456.220367 111.711021,456.000000 
	C128.974014,456.000000 146.237015,456.000000 164.000000,456.000000 
z"/>
<path fill="#E9262A" opacity="1.000000" stroke="none" 
	d="
M338.835754,181.004913 
	C340.036102,180.708313 341.222870,180.237915 342.438995,180.142654 
	C352.137268,179.383011 358.874176,172.325912 359.032166,162.499207 
	C359.138580,155.879822 359.009979,149.256821 359.088226,142.636658 
	C359.106934,141.053726 359.531128,139.475571 360.463135,137.567673 
	C366.322754,137.245026 371.490692,137.147736 376.652832,137.278229 
	C384.896515,137.486588 389.796265,141.713638 391.213104,149.824615 
	C391.609894,152.096069 391.729797,154.441360 391.730499,156.752853 
	C391.755585,241.397675 391.747894,326.042480 391.756958,410.687317 
	C391.757935,419.683411 391.833710,428.679504 391.874817,437.675598 
	C389.894196,437.839478 387.913574,438.146149 385.932922,438.146698 
	C301.965668,438.170593 217.998428,438.169525 134.031174,438.164520 
	C122.857727,438.163849 118.275002,433.580811 118.274338,422.397156 
	C118.268799,329.433411 118.270073,236.469681 118.279625,143.505951 
	C118.279793,141.844940 118.407555,140.183929 119.167244,138.128448 
	C130.093475,137.733963 140.328232,137.733963 150.450989,137.733963 
	C150.675446,138.331650 150.890427,138.638184 150.891617,138.945587 
	C150.940994,151.596893 151.466095,164.271912 150.863846,176.892990 
	C150.267654,189.387466 159.046844,196.196793 169.933151,196.130554 
	C220.042618,195.825668 270.156036,195.831406 320.265411,196.142288 
	C329.717224,196.200928 337.551666,190.395065 338.835754,181.004913 
M252.500046,296.184296 
	C236.856522,296.184296 221.212982,296.183624 205.569458,296.184631 
	C199.744766,296.184998 193.913574,296.046326 188.100830,296.311157 
	C186.922821,296.364838 185.814560,297.949127 184.674133,298.827759 
	C185.809555,299.530518 186.886276,300.373566 188.102783,300.882446 
	C188.811752,301.179077 189.744553,300.942566 190.576645,300.942566 
	C239.670547,300.942871 288.764435,300.943481 337.858337,300.939178 
	C339.188812,300.939056 340.610260,301.161957 341.819580,300.764465 
	C342.712067,300.471130 343.912140,299.330200 343.905151,298.576782 
	C343.897919,297.796814 342.727539,296.645844 341.835754,296.349304 
	C340.630524,295.948486 339.205627,296.187622 337.875000,296.187439 
	C309.750031,296.183411 281.625031,296.184357 252.500046,296.184296 
M319.499573,238.466980 
	C320.499542,238.467026 321.499512,238.469162 322.499481,238.466782 
	C328.665649,238.452087 334.836334,238.550995 340.993561,238.308533 
	C342.023468,238.267960 342.994995,236.744476 343.993500,235.906219 
	C342.996918,235.259628 342.062836,234.458893 340.981750,234.020798 
	C340.264679,233.730164 339.337189,233.955185 338.503906,233.955170 
	C289.005157,233.954651 239.506348,233.931763 190.007889,234.049530 
	C188.260513,234.053680 186.516464,235.454498 184.770859,236.204346 
	C186.514847,236.958252 188.219604,237.833527 190.019272,238.415039 
	C190.924820,238.707642 192.002747,238.467102 193.002716,238.467087 
	C234.834991,238.467026 276.667267,238.466888 319.499573,238.466980 
M284.499969,363.124146 
	C289.662201,363.124146 294.824432,363.124451 299.986664,363.124054 
	C313.308594,363.123047 326.631470,363.192505 339.950989,363.012726 
	C341.306671,362.994415 342.642090,361.477570 343.986938,360.656158 
	C342.643250,360.019470 341.328522,359.305939 339.942047,358.782593 
	C339.358643,358.562378 338.623627,358.742859 337.957550,358.742859 
	C288.999451,358.742706 240.041336,358.742188 191.083237,358.745300 
	C189.751556,358.745392 188.343079,358.526947 187.113800,358.892578 
	C186.214783,359.159943 185.551437,360.219666 184.783020,360.926178 
	C185.549896,361.640533 186.209656,362.712372 187.109772,362.982056 
	C188.336884,363.349762 189.747238,363.121582 191.079041,363.121704 
	C221.886002,363.124786 252.692978,363.124146 284.499969,363.124146 
z"/>
<path fill="#2AA7DE" opacity="1.000000" stroke="none" 
	d="
M314.007690,94.839676 
	C319.521362,99.479156 326.152130,100.674538 333.492676,101.581543 
	C334.368896,104.411423 335.179535,106.676056 335.194916,108.946083 
	C335.305511,125.273483 335.351105,141.602768 335.214020,157.929749 
	C335.146973,165.919144 329.638611,170.978287 321.437775,170.986526 
	C299.444702,171.008667 277.451599,170.973434 255.458572,170.999878 
	C229.635925,171.030914 203.813324,171.102966 177.990692,171.157242 
	C176.726242,168.259613 174.432297,165.384583 174.368118,162.460602 
	C174.010788,146.181839 174.105545,129.890518 174.231873,113.604927 
	C174.290222,106.080376 179.055634,101.115532 186.574112,100.605064 
	C191.046814,100.301384 195.554398,100.542969 200.045059,100.465775 
	C211.151718,100.274872 218.018951,93.349869 218.219772,82.313637 
	C218.273941,79.335785 218.174454,76.245804 218.923737,73.413162 
	C220.393219,67.857918 224.470734,64.322372 230.087341,64.263969 
	C249.873077,64.058205 269.663849,64.334328 289.774902,65.140747 
	C290.490692,69.620689 290.431458,73.508217 291.394836,77.123230 
	C292.546173,81.443665 293.908813,85.979118 296.367493,89.619316 
	C300.566467,95.836113 307.433960,95.371361 314.007690,94.839676 
z"/>
<path fill="#47704C" opacity="1.000000" stroke="none" 
	d="
M392.311646,437.780792 
	C391.833710,428.679504 391.757935,419.683411 391.756958,410.687317 
	C391.747894,326.042480 391.755585,241.397675 391.730499,156.752853 
	C391.729797,154.441360 391.609894,152.096069 391.213104,149.824615 
	C389.796265,141.713638 384.896515,137.486588 376.652832,137.278229 
	C371.490692,137.147736 366.322754,137.245026 360.705902,137.226410 
	C359.665039,132.437500 359.075745,127.662331 358.435608,122.475243 
	C360.841797,122.264854 362.279114,122.034149 363.717133,122.030151 
	C374.710510,121.999588 385.704163,121.978333 396.697418,122.024757 
	C404.616333,122.058197 409.976807,127.497597 409.977997,135.530167 
	C409.992310,231.806274 409.993286,328.082397 409.977997,424.358490 
	C409.976501,433.825653 404.286346,438.243103 392.311646,437.780792 
z"/>
<path fill="#47704C" opacity="1.000000" stroke="none" 
	d="
M338.377808,181.006561 
	C337.551666,190.395065 329.717224,196.200928 320.265411,196.142288 
	C270.156036,195.831406 220.042618,195.825668 169.933151,196.130554 
	C159.046844,196.196793 150.267654,189.387466 150.863846,176.892990 
	C151.466095,164.271912 150.940994,151.596893 150.891617,138.945587 
	C150.890427,138.638184 150.675446,138.331650 150.450989,137.733963 
	C140.328232,137.733963 130.093475,137.733963 119.457886,137.815567 
	C118.890320,126.104256 122.930908,122.010689 134.759659,122.014381 
	C140.864441,122.016289 146.969223,122.043800 153.535553,122.567268 
	C153.994690,133.185043 153.989594,143.295303 153.990601,153.405548 
	C153.991898,166.393311 158.487823,170.910995 171.531021,171.039886 
	C174.998672,179.567444 182.425735,180.940231 190.249710,180.961899 
	C228.331055,181.067337 266.412842,181.009949 304.494476,181.009903 
	C315.636261,181.009872 326.778076,181.008820 338.377808,181.006561 
z"/>
<path fill="#46704F" opacity="1.000000" stroke="none" 
	d="
M178.170166,171.455292 
	C203.813324,171.102966 229.635925,171.030914 255.458572,170.999878 
	C277.451599,170.973434 299.444702,171.008667 321.437775,170.986526 
	C329.638611,170.978287 335.146973,165.919144 335.214020,157.929749 
	C335.351105,141.602768 335.305511,125.273483 335.194916,108.946083 
	C335.179535,106.676056 334.368896,104.411423 333.861938,101.745834 
	C340.015015,100.543037 346.235718,100.096382 350.524109,105.906960 
	C352.066559,107.996918 353.704041,110.599968 353.830322,113.044670 
	C354.241516,121.005898 353.974640,129.002151 353.535950,137.470398 
	C348.561951,137.654480 344.020660,137.353088 338.988708,137.019119 
	C338.988708,150.272049 338.988708,162.553406 338.988708,174.834763 
	C307.912933,174.885468 276.837189,174.947174 245.761429,174.982803 
	C226.649368,175.004730 207.534851,175.142044 188.427505,174.841232 
	C185.052856,174.788132 181.708176,172.831146 178.170166,171.455292 
z"/>
<path fill="#29A5DC" opacity="1.000000" stroke="none" 
	d="
M171.400513,170.625839 
	C158.487823,170.910995 153.991898,166.393311 153.990601,153.405548 
	C153.989594,143.295303 153.994690,133.185043 154.002228,122.617813 
	C159.088104,122.160828 164.168869,122.160828 169.810120,122.160828 
	C169.810120,133.701080 169.674057,145.099258 169.876831,156.491394 
	C169.958359,161.071686 170.783386,165.638718 171.400513,170.625839 
z"/>
<path fill="#E32529" opacity="1.000000" stroke="none" 
	d="
M339.333191,174.973282 
	C338.988708,162.553406 338.988708,150.272049 338.988708,137.019119 
	C344.020660,137.353088 348.561951,137.654480 353.515289,137.933014 
	C353.991943,147.152786 354.603821,156.434952 353.939911,165.624969 
	C353.450104,172.405304 346.581451,176.370468 339.333191,174.973282 
z"/>
<path fill="#46704E" opacity="1.000000" stroke="none" 
	d="
M313.844513,94.531021 
	C307.433960,95.371361 300.566467,95.836113 296.367493,89.619316 
	C293.908813,85.979118 292.546173,81.443665 291.394836,77.123230 
	C290.431458,73.508217 290.490692,69.620689 290.083069,65.436462 
	C293.717987,65.066559 297.442749,64.665794 300.998230,65.266571 
	C306.329590,66.167404 309.941895,71.094002 309.961578,76.763275 
	C309.982788,82.860703 309.568481,89.012566 313.844513,94.531021 
z"/>
<path fill="#190404" opacity="1.000000" stroke="none" 
	d="
M253.000061,296.184326 
	C281.625031,296.184357 309.750031,296.183411 337.875000,296.187439 
	C339.205627,296.187622 340.630524,295.948486 341.835754,296.349304 
	C342.727539,296.645844 343.897919,297.796814 343.905151,298.576782 
	C343.912140,299.330200 342.712067,300.471130 341.819580,300.764465 
	C340.610260,301.161957 339.188812,300.939056 337.858337,300.939178 
	C288.764435,300.943481 239.670547,300.942871 190.576645,300.942566 
	C189.744553,300.942566 188.811752,301.179077 188.102783,300.882446 
	C186.886276,300.373566 185.809555,299.530518 184.674133,298.827759 
	C185.814560,297.949127 186.922821,296.364838 188.100830,296.311157 
	C193.913574,296.046326 199.744766,296.184998 205.569458,296.184631 
	C221.212982,296.183624 236.856522,296.184296 253.000061,296.184326 
z"/>
<path fill="#010000" opacity="1.000000" stroke="none" 
	d="
M318.999573,238.466873 
	C276.667267,238.466888 234.834991,238.467026 193.002716,238.467087 
	C192.002747,238.467102 190.924820,238.707642 190.019272,238.415039 
	C188.219604,237.833527 186.514847,236.958252 184.770859,236.204346 
	C186.516464,235.454498 188.260513,234.053680 190.007889,234.049530 
	C239.506348,233.931763 289.005157,233.954651 338.503906,233.955170 
	C339.337189,233.955185 340.264679,233.730164 340.981750,234.020798 
	C342.062836,234.458893 342.996918,235.259628 343.993500,235.906219 
	C342.994995,236.744476 342.023468,238.267960 340.993561,238.308533 
	C334.836334,238.550995 328.665649,238.452087 322.499481,238.466782 
	C321.499512,238.469162 320.499542,238.467026 318.999573,238.466873 
z"/>
<path fill="#010000" opacity="1.000000" stroke="none" 
	d="
M283.999939,363.124146 
	C252.692978,363.124146 221.886002,363.124786 191.079041,363.121704 
	C189.747238,363.121582 188.336884,363.349762 187.109772,362.982056 
	C186.209656,362.712372 185.549896,361.640533 184.783020,360.926208 
	C185.551437,360.219666 186.214783,359.159943 187.113800,358.892578 
	C188.343079,358.526947 189.751556,358.745392 191.083237,358.745300 
	C240.041336,358.742188 288.999451,358.742706 337.957550,358.742859 
	C338.623627,358.742859 339.358643,358.562378 339.942047,358.782593 
	C341.328522,359.305939 342.643250,360.019470 343.986938,360.656158 
	C342.642090,361.477570 341.306671,362.994415 339.950989,363.012726 
	C326.631470,363.192505 313.308594,363.123047 299.986664,363.124054 
	C294.824432,363.124451 289.662201,363.124146 283.999939,363.124146 
z"/>
</svg>